<svg xmlns="http://www.w3.org/2000/svg" viewBox="0 0 177.41 257.46"><defs><style>.cls-1{fill:#fff;}.cls-2{fill:#040404;}.cls-3{fill:#050505;}.cls-4{fill:#fe6262;}.cls-5{fill:#ade77b;}.cls-6{fill:#fefdfd;}</style></defs><g id="레이어_2" data-name="레이어 2"><g id="레이어_1-2" data-name="레이어 1"><path d="M170.06,143.74c5.44,10.87,9.34,41.9,6.27,55.31-1.69,7.39-5.05,20.59-11.17,29.23-5.17,7.29-13.06,13.46-20.37,17.22-10.2,5.23-20.51,9.33-35.08,11.07-20.9,2.48-47.94-.34-63.81-6.93-17.42-7.23-34-18.45-35.79-38.88-.38-4.47-.33-11.49,4-15.34,2.41-2.16,5.78-2.32,8.16-2.47,12.77-.78,10.29,16.43,13.22,23.52,7.49,18.11,42.22,19.69,64.92,19.1,11.07-.29,27.48-2.88,40.62-13,2.65-.26,5.11-.8,6.49-1.79a1.93,1.93,0,0,0,.3-.27l.27.26c-14.6,14.48-34.83,17.78-47.6,18.12-21.6.56-59.49-.46-68-21.14-3.32-8.05-.75-22.05-10-21.48-2.65.16-4.76.37-6.15,1.62-2.94,2.65-3.28,8-2.88,12.61,1.62,18.45,16.54,29,33.77,36.13,15.23,6.32,41.67,9.14,62.16,6.7,14.07-1.68,24-5.62,34-10.73a55.6,55.6,0,0,0,19.18-16.2c5.69-8,8.94-20.6,10.65-28.05,2.91-12.68-.91-42.93-6-53.11-7.1-14.19-12.79-23.14-27.35-32.06-5.31-3.25-16.58-9.34-22.2-13-3.14-2-7.92-4.17-10.66-7.91-5-6.82-8.52-17.65-8.15-24.24.78-14,4-34.46.18-41.77-2.63-5.05-13.77,6.41-20.45,14.26A1.66,1.66,0,0,0,77.9,38l-.1,0-.09,0c-.19-.07-.55-.18-1.06-.31C80.51,33,96.43,14.31,101.86,24.73c4.37,8.37.9,30.61.18,43.47-.31,5.68,2.89,15.78,7.53,22.12,2.26,3.08,6,4.59,9.8,7.09,5.72,3.71,16.37,9.41,22.12,12.93C156.8,119.72,162.84,129.29,170.06,143.74Z"/><path class="cls-1" d="M167.12,145.21c5.09,10.18,8.91,40.43,6,53.11-1.71,7.45-5,20-10.65,28.05a55.6,55.6,0,0,1-19.18,16.2c-10,5.11-19.9,9.05-34,10.73-20.49,2.44-46.93-.38-62.16-6.7C29.93,239.45,15,228.92,13.39,210.47c-.4-4.59-.06-10,2.88-12.61,1.39-1.25,3.5-1.46,6.15-1.62,9.22-.57,6.65,13.43,10,21.48,8.56,20.68,46.45,21.7,68.05,21.14,12.77-.34,33-3.64,47.6-18.12.4-.4.8-.8,1.19-1.22,5.92-6.27,7-10.27,8-18.71a1.65,1.65,0,1,0-3.27-.39c-1,8-1.87,11.26-7.14,16.84l-.51.51a1.69,1.69,0,0,0-.76.29c-1.62,1.16-7.43,1.62-11.86,1.24-1.85-.17-3.12-.32-3.88-1a1.82,1.82,0,0,0-.41-.27,4.38,4.38,0,0,1-1.77-1.45c-2.79-4,2.78-12.26,7.51-14.31a1.65,1.65,0,0,0,.86-2.16c-1.39-3.24-3.35-7.05-4-9.64a1.65,1.65,0,1,0-3.19.81,35.22,35.22,0,0,0,1.91,5.1l1.69,3.77-.77.48c-4.07,3.2-9.19,10.29-7.89,15.6-9.86,2.21-26.52,2.34-36.61-.69a.45.45,0,0,0-.16,0,28.88,28.88,0,0,0,4.56-10.07,1.65,1.65,0,0,0-3.23-.65c-.94,4.71-4,8.86-5.52,11-5.44,7.58-18.8,8.33-23.87,2.75a2.2,2.2,0,0,1-.61-1.43c-.14-3.6,8-8.82,9.35-14.48a1.65,1.65,0,1,0-3.21-.74c-.85,3.73-8,8.76-9.29,13.71-6.94,1.38-14.4-2.18-13.17-7.25,1.54-6.36,9.64-8.61,11.25-15a1.51,1.51,0,0,0,0-.42c-.15-37-22.43-41.19-19.44-78.27.41-5.07-4.43-8-7-10.25C21.72,100,16.45,95.84,14.65,83.7a86.33,86.33,0,0,1-.23-19.21c.48-6,4.21-19.2,8.91-30.33,5.39-12.77,10.1-18.07,12.1-16.82,3.61,2.25,4.6,10.35,7.22,16a1.66,1.66,0,0,0,1.39.95c2.72.17,27.21,5.24,31.84,6.48l.64.19.09,0a.79.79,0,0,0,.26.08,1.34,1.34,0,0,0,.35,0,1.32,1.32,0,0,0,.34,0,1.8,1.8,0,0,0,.33-.1.92.92,0,0,0,.27-.16l.12-.09a1.14,1.14,0,0,0,.19-.19l0,0c6.68-7.85,17.82-19.31,20.45-14.26,3.81,7.31.6,27.73-.18,41.77-.37,6.59,3.16,17.42,8.15,24.24,2.74,3.74,7.52,5.87,10.66,7.91,5.62,3.64,16.89,9.73,22.2,13C154.33,122.07,160,131,167.12,145.21ZM100.55,93.46a1.64,1.64,0,0,0-1.34-1.9c-3.85-.69-5.94-.81-9.72-1.5a1.65,1.65,0,1,0-.59,3.24c2.79.51,7.19,1,9.74,1.5A1.65,1.65,0,0,0,100.55,93.46Zm-1.33,9.08a1.66,1.66,0,0,0-1.23-2c-3.72-.87-5.8-2.91-10.12-4.44a1.64,1.64,0,1,0-1.1,3.1c2.4.85,7.16,3.77,10.47,4.55A1.66,1.66,0,0,0,99.22,102.54ZM83.1,80a6.18,6.18,0,1,0-6.18,6.18A6.18,6.18,0,0,0,83.1,80ZM42,82.32c.6,4.65,12.55,4.84,11.8,0C53.63,79.32,41.45,77.87,42,82.32ZM30.87,72.77A5.9,5.9,0,1,0,25,78.66,5.9,5.9,0,0,0,30.87,72.77Z"/><path d="M155.8,199a1.66,1.66,0,0,1,1.44,1.83c-1,8.44-2.09,12.44-8,18.71-.39.42-.79.82-1.19,1.22l-.27-.26a1.65,1.65,0,0,0-1.45-2.71l.51-.51c5.27-5.58,6.17-8.82,7.14-16.84A1.65,1.65,0,0,1,155.8,199Z"/><path d="M147.86,218.45a1.65,1.65,0,0,1-.09,2,1.93,1.93,0,0,1-.3.27c-1.38,1-3.84,1.53-6.49,1.79a47.72,47.72,0,0,0,5.34-4.77A1.64,1.64,0,0,1,147.86,218.45Z"/><path d="M145.56,218.06a1.69,1.69,0,0,1,.76-.29,47.72,47.72,0,0,1-5.34,4.77,44.55,44.55,0,0,1-7.56,0,12.68,12.68,0,0,1-4.4-.93l-1-.68a8.83,8.83,0,0,1-2.57-1.78l.63-.16a1.64,1.64,0,0,0,1.17-2,1.43,1.43,0,0,0-.09-.27l.51-.2a4.38,4.38,0,0,0,1.77,1.45,1.82,1.82,0,0,1,.41.27c.76.71,2,.86,3.88,1C138.13,219.68,143.94,219.22,145.56,218.06Z"/><path d="M136,200.08a1.65,1.65,0,0,1-.86,2.16c-4.73,2-10.3,10.3-7.51,14.31l-.51.2a1.65,1.65,0,0,0-1.92-.9c-.47.12-.95.24-1.46.35-1.3-5.31,3.82-12.4,7.89-15.6l.77-.48-1.69-3.77a35.22,35.22,0,0,1-1.91-5.1,1.65,1.65,0,1,1,3.19-.81C132.66,193,134.62,196.84,136,200.08Z"/><path d="M127.22,217a1.64,1.64,0,0,1-1.17,2l-.63.16a6.32,6.32,0,0,1-1.67-3c.51-.11,1-.23,1.46-.35a1.65,1.65,0,0,1,1.92.9A1.43,1.43,0,0,1,127.22,217Z"/><path d="M123.75,216.2a6.32,6.32,0,0,0,1.67,3c-10.23,2.53-28.2,2.79-39.23-.53a1.55,1.55,0,0,1-.94-.75c.08-.09.14-.18.21-.27.39-.54.92-1.27,1.52-2.16a.45.45,0,0,1,.16,0C97.23,218.54,113.89,218.41,123.75,216.2Z"/><path d="M99.21,91.56a1.64,1.64,0,1,1-.57,3.24c-2.55-.45-7-1-9.74-1.5a1.65,1.65,0,1,1,.59-3.24C93.27,90.75,95.36,90.87,99.21,91.56Z"/><path d="M98,100.56a1.65,1.65,0,0,1-.75,3.21c-3.31-.78-8.07-3.7-10.47-4.55a1.64,1.64,0,1,1,1.1-3.1C92.19,97.65,94.27,99.69,98,100.56Z"/><path d="M90.25,203.47a1.66,1.66,0,0,1,1.29,1.94A28.88,28.88,0,0,1,87,215.48a1.63,1.63,0,0,0-1.73,2.43c-6.61,8.82-22.19,10-28.77,2.77a5.82,5.82,0,0,1-1.17-1.83l.77-.14a1.67,1.67,0,0,0,1.31-1.62l.92-.05a2.2,2.2,0,0,0,.61,1.43c5.07,5.58,18.43,4.83,23.87-2.75,1.5-2.1,4.58-6.25,5.52-11A1.64,1.64,0,0,1,90.25,203.47Z"/><path d="M85.09,216.61A1.63,1.63,0,0,1,87,215.48c-.6.89-1.13,1.62-1.52,2.16-.07.09-.13.18-.21.27A1.63,1.63,0,0,1,85.09,216.61Z"/><path d="M76.92,73.8A6.18,6.18,0,1,1,70.75,80,6.18,6.18,0,0,1,76.92,73.8Z"/><path d="M77.9,38a1.66,1.66,0,0,1,.59,2.54l0,0-.19.19-.12.09a1.75,1.75,0,0,1-.27.16,1.59,1.59,0,0,1-.33.1,1.27,1.27,0,0,1-.34,0,1.34,1.34,0,0,1-.35,0,.79.79,0,0,1-.26-.08,1.54,1.54,0,0,1-.46-.27A1.65,1.65,0,0,1,76,38.4l.69-.83c.51.13.87.24,1.06.31l.09,0Z"/><path d="M78.28,40.72l.19-.19A1.14,1.14,0,0,1,78.28,40.72Z"/><path d="M77.89,41a1.75,1.75,0,0,0,.27-.16A.92.92,0,0,1,77.89,41Z"/><path d="M77.56,41.07a1.59,1.59,0,0,0,.33-.1A1.8,1.8,0,0,1,77.56,41.07Z"/><path d="M77.22,41.11a1.27,1.27,0,0,0,.34,0A1.32,1.32,0,0,1,77.22,41.11Z"/><path d="M76.87,41.07a1.34,1.34,0,0,0,.35,0A1.34,1.34,0,0,1,76.87,41.07Z"/><path d="M76.61,41l-.09,0-.64-.19C71.25,39.53,46.76,34.46,44,34.29a1.66,1.66,0,0,1-1.39-.95C40,27.69,39,19.59,35.43,17.34c-2-1.25-6.71,4.05-12.1,16.82-4.7,11.13-8.43,24.34-8.91,30.33a86.33,86.33,0,0,0,.23,19.21l-1.45.14-.06-.24a1.64,1.64,0,0,0-2-1.11c-.1-.82-.18-1.67-.24-2.56h0a1.65,1.65,0,0,0,.12-3.29h-.3a109.43,109.43,0,0,1,.37-12.41c.52-6.5,4.41-20.09,9.15-31.34,4.09-9.69,10.63-22.24,16.88-18.34,4.08,2.55,6.19,11.14,7.8,15.73l.34.87,1.19.18c6.82,1.14,25.25,5,30.15,6.25L76,38.4a1.65,1.65,0,0,0,.19,2.32A1.54,1.54,0,0,0,76.61,41Z"/><path d="M66.42,200.58a1.66,1.66,0,0,1,1.24,2c-1.3,5.66-9.49,10.88-9.35,14.48l-.92.05a2.09,2.09,0,0,0,0-.34,1.65,1.65,0,0,0-2-1.26l-.23,0c1.31-4.95,8.44-10,9.29-13.71A1.66,1.66,0,0,1,66.42,200.58Z"/><path d="M57.35,216.75a2.09,2.09,0,0,1,0,.34,1.67,1.67,0,0,1-1.31,1.62l-.77.14a5.18,5.18,0,0,1-.15-3.32l.23,0A1.65,1.65,0,0,1,57.35,216.75Z"/><path d="M55.16,215.53a5.18,5.18,0,0,0,.15,3.32c-7.44,1.22-18.75-2.1-16.52-11.35,1.44-5.94,8.17-9.77,10.54-13.44l.66-1.44-.27-6c-2.56-29.86-22-37-19.15-72.27.24-2.92-2.35-4.41-5.91-7.48-5.39-4.65-10.85-9.24-13-21.07l.4-.13a1.64,1.64,0,0,0,1.14-1.82l1.45-.14c1.8,12.14,7.07,16.26,12.16,20.66,2.61,2.26,7.45,5.18,7,10.25-3,37.08,19.29,41.28,19.44,78.27a1.51,1.51,0,0,1,0,.42c-1.61,6.37-9.71,8.62-11.25,15C40.76,213.35,48.22,216.91,55.16,215.53Z"/><path d="M53.82,82.32c.75,4.84-11.2,4.65-11.8,0C41.45,77.87,53.63,79.32,53.82,82.32Z"/><path d="M25,66.87a5.9,5.9,0,1,1-5.9,5.9A5.9,5.9,0,0,1,25,66.87Z"/><path d="M13.2,83.84a1.64,1.64,0,0,1-1.14,1.82l-.4.13q-.27-1.56-.48-3.3a1.64,1.64,0,0,1,2,1.11Z"/><path d="M11.07,76.64A1.65,1.65,0,0,1,11,79.93h0c-.08-1.05-.14-2.15-.17-3.3Z"/><path d="M11.18,82.49q.21,1.74.48,3.3a33.86,33.86,0,0,1-10,1.82,1.65,1.65,0,1,1,0-3.29,31.63,31.63,0,0,0,9.42-1.8Z"/><path d="M10.77,76.63c0,1.15.09,2.25.17,3.3-3-.1-6.49-.39-9.17-.19a1.64,1.64,0,1,1-.24-3.28A91.69,91.69,0,0,1,10.77,76.63Z"/><path d="M46.3,44a13.56,13.56,0,0,1,4.52-14.14A11.76,11.76,0,0,1,52.05,29c.25-.17.27-.3.08-.57A15.8,15.8,0,0,1,49.78,24a18.81,18.81,0,0,1-.71-8.26,11.7,11.7,0,0,1,.79-3.17c.46.12.31.49.36.69.42-1,1-2,1.52-3.06a1.1,1.1,0,0,1,.74-.53c.35-.09.5-.31.42-.75-.49.33-1,.53-1.28,1a1,1,0,0,1-.36.39c-.11.07-.23.17-.35.06s0-.24.05-.35a3.38,3.38,0,0,0,.6-1.37c1.75-3.94,4.12-7.22,8.6-8.37a11.94,11.94,0,0,1,7.9.79c.66.29,1.3.64,1.94,1a1.2,1.2,0,0,1,.61,1.41,10.67,10.67,0,0,1-4.82,7.24,11.74,11.74,0,0,1-5.17,1.58c-.37,0-.3-.26-.28-.44.06-.57,0-1.13.08-1.7s.46-.41.78-.48A8.34,8.34,0,0,0,67,5.59a11.11,11.11,0,0,0,.56-1.27.59.59,0,0,0-.34-.86C62.82,1.28,57.67,2.4,55.13,7.17a3.22,3.22,0,0,1-.7,1.11A1.49,1.49,0,0,0,53.6,10,1.19,1.19,0,0,1,53,11.39a4.09,4.09,0,0,0-1.42,2.89A17.76,17.76,0,0,0,52,23.4a12.94,12.94,0,0,0,2.22,3.86.75.75,0,0,0,1,.24,13.38,13.38,0,0,1,12.48,2.08.35.35,0,0,1,.08.1c.16.27.38.5.51.78.21.44.59.87-.09,1.28-.24.15-.1.4.08.56a9,9,0,0,1,2.18,3.27,2.42,2.42,0,0,0,.76,1.06,1.8,1.8,0,0,1,.55,1.24,9.85,9.85,0,0,0,.6,2.15,13.44,13.44,0,0,1,.46,2.79,11.79,11.79,0,0,1-2.34,5.58A13.1,13.1,0,0,1,60.74,54a12.94,12.94,0,0,1-10.65-3.73c.56-.56.6-.72.08-1.32a16.16,16.16,0,0,1-2.81-4.61c-.14-.35-.35-.58-.76-.31A.23.23,0,0,1,46.3,44Z"/><path class="cls-2" d="M72.78,42.81a3.11,3.11,0,0,1-.4-1.63A3,3,0,0,0,72,39.7a5,5,0,0,1-.4-1.71c-.12-.54-.17-1.1-.77-1.44-.41-.24-.51-.8-.71-1.24A7.41,7.41,0,0,0,68,32.4c-.41-.32-.36-.69.14-.92.3-.14.27-.24.16-.48a6.07,6.07,0,0,1-.6-1.32,13.71,13.71,0,0,1,4.78,7.48,13.23,13.23,0,0,1,.38,5.35A1.21,1.21,0,0,1,72.78,42.81Z"/><path class="cls-2" d="M53,11.39a2.71,2.71,0,0,0,.37-2.08c0-.53.43-.9,1-1.09a.41.41,0,0,1,.11.3c0,.82,0,.79.8,1a15.91,15.91,0,0,0,4.3.37,1.48,1.48,0,0,1,1,.16,7.67,7.67,0,0,1-.1,2,.25.25,0,0,0,.15.27,4.74,4.74,0,0,1-1.76.09c0-.14.06-.25.1-.37.17-.44,0-.71-.46-.74a15.62,15.62,0,0,1-3-.5.64.64,0,0,0-.68.15c-.2.23,0,.4.13.58a.23.23,0,0,1,0,.24A13.65,13.65,0,0,0,53,11.39Z"/><path class="cls-2" d="M46.3,44c.77-.51,1-.44,1.29.44a14.26,14.26,0,0,0,2.48,4.09c.15.18.3.37.44.57.42.64.33.88-.42,1.14A14.24,14.24,0,0,1,46.3,44Z"/><path d="M55,11.8a.78.78,0,0,0-.16-.2c-.2-.15-.4-.3-.29-.59a.6.6,0,0,1,.69-.39c.5.07,1,.22,1.47.31a7.43,7.43,0,0,0,1.63.21.75.75,0,0,1,.83.39c.18.41,0,.67-.32.91A8.33,8.33,0,0,1,55,11.8Z"/><path class="cls-3" d="M51.56,8.72c.25.39-.06.66-.21,1s-.28.43-.42.65l.15.15a2,2,0,0,0,.4-.54c.17-.66.92-.69,1.24-1.19.12-.18.26-.06.35.1a.69.69,0,0,1-.48,1,.93.93,0,0,0-.8.59c-.53,1.06-1.07,2.12-1.64,3.27-.07-.42,0-.82-.29-1.11A19.69,19.69,0,0,1,51.56,8.72Z"/><path class="cls-4" d="M56.8,29.47a11.26,11.26,0,1,1,5.07,21.94,10.77,10.77,0,0,1-11.35-4.2,11.15,11.15,0,0,1,3.26-16.53.65.65,0,0,1,.87,0,11.36,11.36,0,0,0,2.91,1.66c.75.29,1.45.12,1.66-.43a1.2,1.2,0,0,0-.81-1.67A8.1,8.1,0,0,1,56.8,29.47Z"/><path class="cls-5" d="M60.57,10.05a17.12,17.12,0,0,1-5.75-.43c-.81-.22-.81-.22-.54-1a2.32,2.32,0,0,0,.07-.38c.51-.82.9-1.71,1.49-2.49,3-3.85,7.66-4.43,11.73-2.27.35.19.32.39.21.69a8.37,8.37,0,0,1-6.84,5.79Z"/><path d="M58,35.93a3.93,3.93,0,0,1-3-1.47,1.16,1.16,0,0,1,1.7-1.59,2.36,2.36,0,0,0,3,.43,1.78,1.78,0,0,0,1-1.48,4.55,4.55,0,0,1,0-.53,1.17,1.17,0,0,1,1.13-1.08A1.25,1.25,0,0,1,63,31.42a3.87,3.87,0,0,1-1.51,3.3A5.06,5.06,0,0,1,58,35.93Z"/><path class="cls-6" d="M54.07,36.56a1.73,1.73,0,0,1-1.64,1.59,1.36,1.36,0,0,1-1.35-1.35,1.92,1.92,0,0,1,1.66-1.61A1.34,1.34,0,0,1,54.07,36.56Z"/></g></g></svg>