<svg xmlns="http://www.w3.org/2000/svg" viewBox="0 0 266.55 276.57"><defs><style>.cls-1{fill:#fff;}.cls-2{fill:#e5e5e5;}.cls-3{fill:#040404;}.cls-4{fill:#050505;}.cls-5{fill:#fe6262;}.cls-6{fill:#ade77b;}.cls-7{fill:#fefdfd;}</style></defs><g id="레이어_2" data-name="레이어 2"><g id="레이어_1-2" data-name="레이어 1"><path d="M266,157.4A67,67,0,0,1,263,187.74L260,195.08l.42,2.61c1.39,15.46-13.65,27-28.59,30.6s-52.78,6.66-54.27,20.88c-.46,4.35,7.94,5.64,12.91,13,2.69,3.95,1.29,9.08-1.9,11.95-2.48,2.24-4.16,2.1-5.78,2.32-17.42,2.36-32.71-17.84-24.71-34.13,5.35-10.89,21.64-18.63,37.56-24l5.13-1.62-4.28-.27a72.86,72.86,0,0,1-13.75-2.09l-1.06-.47q.33-.68.6-1.35c5.08,2,20.2,2.86,26.57,2.84,0,.18.1.37.16.56-19.11,5.26-43,13.9-49.51,27.08-7.42,15.11,6.87,34.06,23.07,31.86,1.73-.24,2.88-.07,4.95-1.92,2.74-2.48,3.78-6.75,1.65-9.89-4.67-6.87-13.79-8.32-13.19-14,1.65-15.65,39.28-18.3,55.48-22.24,15.74-3.83,30.5-16.19,26.91-31.86a66.72,66.72,0,0,0,6.06-37.32c-1.83-15.24-9.36-26.44-18.38-36.74-10.5-12-21.85-17.74-39.59-26.93-5.07-2.62-8.12-7.86-9.51-10.45-4.21-7.87-3.28-11.78-1.72-24,1.33-10.34,6.4-29.58.46-31.77-4-1.45-14.22,7.08-21.36,12.85-1,.05-31.3-7.07-31.58-7.42-2.23-6.91.84-18.73-6-18.1s-19,21.29-23.62,28.54c-7.68,12.15-11.73,22.2-12.69,32.18a48.84,48.84,0,0,0-.14,7.88,1.86,1.86,0,0,0-.34-.07c-.41,0-.83-.06-1.26-.08a51.36,51.36,0,0,1,.17-7.88c1-10.32,5.17-20.61,12.92-32.88,3-4.74,16.4-28.5,24.81-29.26,7.79-.71,6.15,9.29,7.1,16.37l.44,2.08,1,.27c6,1.54,24.73,5.94,28.65,6.69h.09l1.81-1.47c6.12-5,16.12-12.82,20.54-11.19,7.89,2.9,1.48,26.36.57,33.45-1.57,12.3-2.39,15.69,1.55,23,1.38,2.59,4.24,7.42,8.83,9.8,17.69,9.15,29.33,15,40.07,27.29C256.37,130.2,264.14,141.68,266,157.4Z"/><path d="M264.45,157.58a66.72,66.72,0,0,1-6.06,37.32c3.59,15.67-11.17,28-26.91,31.86-16.2,3.94-53.83,6.59-55.48,22.24-.6,5.69,8.52,7.14,13.19,14,2.13,3.14,1.09,7.41-1.65,9.89-2.07,1.85-3.22,1.68-4.95,1.92-16.2,2.2-30.49-16.75-23.07-31.86,6.48-13.18,30.4-21.82,49.51-27.08l.06.18a1.56,1.56,0,0,0,1.35,1.07C191,222.43,167.16,231,161,243.66c-6.85,13.93,6.44,31.62,21.43,29.59,1.83-.25,2.46-.05,4.1-1.53,2.3-2.07,3-5.48,1.39-7.82-3.89-5.73-14.16-8.27-13.44-15.06,1.77-16.87,37.77-19,56.67-23.62,15.54-3.78,29-15.67,25.75-30a1.6,1.6,0,0,1,.1-1,65.16,65.16,0,0,0,5.92-36.47c-1.77-14.78-9.06-25.68-18-35.89-10.27-11.75-21.34-17.35-39.13-26.56-5.54-2.87-8.78-8.51-10.17-11.12-4.49-8.38-3.45-12.81-1.9-24.93.72-5.58,2.24-12.34,2.95-18.91.76-7,.09-10.6-1.47-11.17-1-.39-3.83.69-8,3.54-3.89,2.63-8.18,6.15-11.77,9.05a1.53,1.53,0,0,1-1.08.35h-.17c-2.07-.21-29.85-6.73-31.79-7.46l-.13,0-.09,0a1.55,1.55,0,0,1-.83-.94c-2.55-7.91.32-17.44-4.39-17-5.85.53-17.43,19.9-22.42,27.81-7.61,12-11.53,21.84-12.45,31.48a46,46,0,0,0,0,9.17l-.61.06a1.58,1.58,0,0,0-1.1-1.5,48.84,48.84,0,0,1,.14-7.88c1-10,5-20,12.69-32.18,4.58-7.25,16.61-27.9,23.62-28.54s3.81,11.19,6,18.1c.28.35,30.62,7.47,31.58,7.42,7.14-5.77,17.41-14.3,21.36-12.85,5.94,2.19.87,21.43-.46,31.77-1.56,12.21-2.49,16.12,1.72,24,1.39,2.59,4.44,7.83,9.51,10.45,17.74,9.19,29.09,14.91,39.59,26.93C255.09,131.14,262.62,142.34,264.45,157.58Z"/><path class="cls-1" d="M262.87,157.77A65.16,65.16,0,0,1,257,194.24a1.6,1.6,0,0,0-.1,1c3.28,14.3-10.21,26.19-25.75,30-18.9,4.6-54.9,6.75-56.67,23.62-.72,6.79,9.55,9.33,13.44,15.06,1.59,2.34.91,5.75-1.39,7.82-1.64,1.48-2.27,1.28-4.1,1.53-15,2-28.28-15.66-21.43-29.59,6.21-12.66,30-21.23,49.49-26.53a1.63,1.63,0,0,0,.38,0c17.44-2.48,29.42-7.84,35.37-18.53a1.58,1.58,0,1,0-2.77-1.54c-4.55,8.18-13.29,13.14-26.91,15.89l-4.59.78a.25.25,0,0,0-.14,0l-.22-1c-.56-5.09,3.34-8.16,7.38-10.59a1.58,1.58,0,0,0,0-2.7c-2.73-1.7-5.25-5.13-3.84-7.45a1.58,1.58,0,1,0-2.7-1.65c-2.33,3.83.2,7.7,2.65,10l.4.32-1.79,1.23c-3.23,2.6-6.09,6.36-5.17,11.83-6.5,0-21.45-.94-25.68-2.75a22.47,22.47,0,0,0-.5-14,1.58,1.58,0,1,0-3,1c1.6,4.91,1.81,9.5-.31,14.13-5.82,6.17-22.92,3.2-22.85-4a1.53,1.53,0,0,0-.7-1.33c-.8-7,4.53-8.13,5.09-15.54.38-5.05-1.69-17.18-4-21.46a1.58,1.58,0,0,0-2.79,1.5c2,3.64,4,15.14,3.62,19.72-.42,5.63-6.36,8.29-5,17h0a19.88,19.88,0,0,1-7.15,2.61c-9,1.29-15.24-1.84-14.79-6.74.23-2.56,3.22-6.75,4.87-8.41a1.61,1.61,0,0,0,.36-.58c7.32-20.46-1.36-68.13-7.25-76.35,2-8.26,5.27-21.62,4.15-25.41a1.45,1.45,0,0,0-.29-.55l.43-.23.12.46c1.28,3.09,4.72,4.09,7.65,3.72,3.54-.45,8.35-3.27,7.08-8.06a1.59,1.59,0,0,0-1.94-1.12,1.57,1.57,0,0,0-1.12,1.94c1.06,4-9.68,7.09-9,0a1.59,1.59,0,0,0-2.81-1.15c-4.09,5.06-9.94,2.79-9.82-.88a1.59,1.59,0,0,0-3.17-.1c-.18,5.57,4.92,7.92,9.77,6.65a1.29,1.29,0,0,0,0,.19c.82,2.79-2,14.62-4,22.84-5-2.15-21.47-11.15-23.58-31.8a46,46,0,0,1,0-9.17c.92-9.64,4.84-19.45,12.45-31.48,5-7.91,16.57-27.28,22.42-27.81,4.71-.43,1.84,9.1,4.39,17a1.55,1.55,0,0,0,.83.94l.09,0,.13,0c1.94.73,29.72,7.25,31.79,7.46h.17a1.53,1.53,0,0,0,1.08-.35c3.59-2.9,7.88-6.42,11.77-9.05,4.21-2.85,7-3.93,8-3.54,1.56.57,2.23,4.19,1.47,11.17-.71,6.57-2.23,13.33-2.95,18.91-1.55,12.12-2.59,16.55,1.9,24.93,1.39,2.61,4.63,8.25,10.17,11.12,17.79,9.21,28.86,14.81,39.13,26.56C253.81,132.09,261.1,143,262.87,157.77ZM184.31,104.5a1.6,1.6,0,0,0-.89-2.06c-4.7-1.88-8.9-4-14.38-5.38a1.58,1.58,0,1,0-.78,3.07c5.21,1.33,9,3.26,14,5.26A1.6,1.6,0,0,0,184.31,104.5Zm-5.55,8.44a1.59,1.59,0,0,0,.16-2.24c-2.1-2.43-9.58-7-12.34-8.5a1.59,1.59,0,1,0-1.49,2.8c2.84,1.51,9.78,5.86,11.44,7.78A1.58,1.58,0,0,0,178.76,112.94ZM165.69,79.29a4.88,4.88,0,1,0-4.85,5.36A5.12,5.12,0,0,0,165.69,79.29ZM120.76,73a4.88,4.88,0,1,0-4.85,5.36A5.12,5.12,0,0,0,120.76,73Z"/><path d="M245.58,196.43a1.59,1.59,0,0,1,.61,2.16c-5.95,10.69-17.93,16-35.37,18.53a1.63,1.63,0,0,1-.38,0l1.4-.38a1.58,1.58,0,0,0,.08-3l4.59-.78c13.62-2.75,22.36-7.71,26.91-15.89A1.59,1.59,0,0,1,245.58,196.43Z"/><path d="M219,199.44a1.58,1.58,0,0,1,0,2.7c-4,2.43-7.94,5.5-7.38,10.59l.22,1a1.53,1.53,0,0,0-.57,0,21.91,21.91,0,0,1-2.71.09c-.92-5.47,1.94-9.23,5.17-11.83l1.79-1.23-.4-.32c-2.45-2.33-5-6.2-2.65-10a1.58,1.58,0,1,1,2.7,1.65C213.7,194.31,216.22,197.74,219,199.44Z"/><path d="M211.92,213.72a1.58,1.58,0,0,1-.08,3l-1.4.38a1.56,1.56,0,0,1-1.35-1.07l-.06-.18,2.4-.66a20.91,20.91,0,0,1-2.56.1,14.16,14.16,0,0,1-.37-1.57,21.91,21.91,0,0,0,2.71-.09,1.53,1.53,0,0,1,.57,0v.06Z"/><path d="M211.92,213.72l-.13,0v-.06A.25.25,0,0,1,211.92,213.72Z"/><path d="M208.87,215.32a20.91,20.91,0,0,0,2.56-.1l-2.4.66C209,215.69,208.91,215.5,208.87,215.32Z"/><path d="M208.87,215.32c-6.37,0-21.49-.81-26.57-2.84.19-.5.37-1,.52-1.48,4.23,1.81,19.18,2.73,25.68,2.75A14.16,14.16,0,0,0,208.87,215.32Z"/><path d="M183.42,102.44a1.59,1.59,0,1,1-1.17,3c-5-2-8.78-3.93-14-5.26a1.58,1.58,0,1,1,.78-3.07C174.52,98.45,178.72,100.56,183.42,102.44Z"/><path d="M182.32,197a22.47,22.47,0,0,1,.5,14,3.64,3.64,0,0,1-.72-.39,1.58,1.58,0,0,0-2.27.44,6.66,6.66,0,0,1-.83,1.07c2.12-4.63,1.91-9.22.31-14.13a1.58,1.58,0,1,1,3-1Z"/><path d="M182.82,211c-.15.49-.33,1-.52,1.48a5.1,5.1,0,0,1-1.13-.59,8.8,8.8,0,0,1-2.26,2.38,1.59,1.59,0,0,1-.15-1.63c.09-.17.17-.35.24-.52a6.66,6.66,0,0,0,.83-1.07,1.58,1.58,0,0,1,2.27-.44A3.64,3.64,0,0,0,182.82,211Z"/><path d="M182.3,212.48q-.27.68-.6,1.35l-.2-.09-1.17,1.17a1.59,1.59,0,0,1-.85-.15,1.52,1.52,0,0,1-.57-.49,8.8,8.8,0,0,0,2.26-2.38A5.1,5.1,0,0,0,182.3,212.48Z"/><path d="M181.7,213.83l-.1.21a1.57,1.57,0,0,1-1.27.87l1.17-1.17Z"/><path d="M180.33,214.91l-.74.74c-7.22,4.83-21.69,3.66-25.61-3.47l-.47-1.2-1.9,1a24,24,0,0,1-5.9,1.75c-8.51,1.22-19.19-1.29-18.38-10.16.25-2.82,2.41-6.26,4.19-8.54l1.28-1.48,1.12-3.94c4.36-19.7-2.13-55.75-6.56-66.58.15-.68.35-1.49.58-2.4,5.28,10,13.24,54.29,6.28,73.69-1.68,1.7-5,6.23-5.32,9.39-.62,6.89,7.83,9.7,16.59,8.45a22,22,0,0,0,7.32-2.56,1.59,1.59,0,0,0,1.75.81,1.42,1.42,0,0,0,.36-.14c2.45,7.13,17.18,9,24,4a1.52,1.52,0,0,0,.57.49A1.59,1.59,0,0,0,180.33,214.91Z"/><path d="M178.92,110.7a1.58,1.58,0,1,1-2.39,2.08c-1.66-1.92-8.6-6.27-11.44-7.78a1.59,1.59,0,1,1,1.49-2.8C169.34,103.67,176.82,108.27,178.92,110.7Z"/><path d="M179,212.12c-.07.17-.15.35-.24.52a1.59,1.59,0,0,0,.15,1.63c-6.81,5-21.54,3.17-24-4a1.57,1.57,0,0,0,.83-1.76,15.76,15.76,0,0,1-.3-1.73,1.53,1.53,0,0,1,.7,1.33C156.08,215.32,173.18,218.29,179,212.12Z"/><path d="M160.84,73.94A5.38,5.38,0,1,1,156,79.29,5.12,5.12,0,0,1,160.84,73.94Z"/><path d="M156.55,169.82c2.3,4.28,4.37,16.41,4,21.46-.56,7.41-5.89,8.54-5.09,15.54a1.58,1.58,0,0,0-2.24.5,2.59,2.59,0,0,1-.79.69c-1.4-8.68,4.54-11.34,5-17,.34-4.58-1.67-16.08-3.62-19.72a1.58,1.58,0,0,1,2.79-1.5Z"/><path d="M155.75,208.55a1.57,1.57,0,0,1-.83,1.76,6.27,6.27,0,0,1-.35-2.18,5.3,5.3,0,0,1-1.76,1.51,1.32,1.32,0,0,1-.15-.39q-.15-.63-.24-1.23h0a2.59,2.59,0,0,0,.79-.69,1.58,1.58,0,0,1,2.24-.5A15.76,15.76,0,0,0,155.75,208.55Z"/><path d="M154.92,210.31a1.42,1.42,0,0,1-.36.14,1.59,1.59,0,0,1-1.75-.81,5.3,5.3,0,0,0,1.76-1.51A6.27,6.27,0,0,0,154.92,210.31Z"/><path d="M152.66,209.25a1.32,1.32,0,0,0,.15.39,22,22,0,0,1-7.32,2.56c-8.76,1.25-17.21-1.56-16.59-8.45.29-3.16,3.64-7.69,5.32-9.39,7-19.4-1-63.69-6.28-73.69.16-.66.33-1.36.52-2.12,5.89,8.22,14.57,55.89,7.25,76.35a1.61,1.61,0,0,1-.36.58c-1.65,1.66-4.64,5.85-4.87,8.41-.45,4.9,5.77,8,14.79,6.74a19.88,19.88,0,0,0,7.15-2.61Q152.51,208.62,152.66,209.25Z"/><path d="M147.6,88.48c1.27,4.79-3.54,7.61-7.08,8.06-2.93.37-6.37-.63-7.65-3.72l-.12-.46-.43.23a1.57,1.57,0,0,0-1.67-.52,1.6,1.6,0,0,0-1.12,1.77c-4.85,1.27-10-1.08-9.77-6.65a1.59,1.59,0,0,1,3.17.1c-.12,3.67,5.73,5.94,9.82.88a1.59,1.59,0,0,1,2.81,1.15c-.7,7.07,10,4,9,0a1.57,1.57,0,0,1,1.12-1.94A1.59,1.59,0,0,1,147.6,88.48Z"/><path d="M132.61,93.14c1.12,3.79-2.12,17.15-4.15,25.41a4.67,4.67,0,0,0-.72-.82,1.59,1.59,0,0,0-.79-.36l-.6-.19c-.21-.08-.48-.18-.78-.31,2-8.22,4.82-20.05,4-22.84a1.29,1.29,0,0,1,0-.19,10.59,10.59,0,0,0,1.05-.33l1.74-.92A1.45,1.45,0,0,1,132.61,93.14Z"/><path d="M132.32,92.59l-1.74.92a10.59,10.59,0,0,1-1.05.33,1.6,1.6,0,0,1,1.12-1.77A1.57,1.57,0,0,1,132.32,92.59Z"/><path d="M128.46,118.55c-.19.76-.36,1.46-.52,2.12a6.08,6.08,0,0,0-1.23-1.73,8,8,0,0,1-1.51-.53c.12-.5.24-1,.37-1.54.3.13.57.23.78.31l.6.19a1.59,1.59,0,0,1,.79.36A4.67,4.67,0,0,1,128.46,118.55Z"/><path d="M127.94,120.67c-.23.91-.43,1.72-.58,2.4a17.74,17.74,0,0,0-.8-1.71l-.75-1-.32-.1-.67-.26.38-1.56a8,8,0,0,0,1.51.53A6.08,6.08,0,0,1,127.94,120.67Z"/><path d="M127.36,123.07c-.15.64-.27,1.16-.34,1.54a94.09,94.09,0,0,1-40.95,61.93,19.77,19.77,0,0,0-1.66-2.7A91,91,0,0,0,123.91,124c.17-.89.49-2.31.91-4.06l.67.26.32.1.75,1A17.74,17.74,0,0,1,127.36,123.07Z"/><path d="M125.57,116.87c-.13.53-.25,1-.37,1.54-5.18-2.14-21.91-11.18-24.64-31.9a1.53,1.53,0,0,0,.81-1.23s0-.1,0-.15l.61-.06C104.1,105.72,120.52,114.72,125.57,116.87Z"/><path d="M125.2,118.41l-.38,1.56c-4.9-2-19.89-9.93-24.71-27.62a1.57,1.57,0,0,0-.66-2.82c-.19-.93-.35-1.89-.47-2.87l.67,0a1.5,1.5,0,0,0,.91-.2C103.29,107.23,120,116.27,125.2,118.41Z"/><path d="M115.91,67.66A5.39,5.39,0,1,1,111.05,73,5.12,5.12,0,0,1,115.91,67.66Z"/><path d="M101.38,85.13c0,.05,0,.1,0,.15a1.53,1.53,0,0,1-.81,1.23c-.13-.93-.22-1.89-.28-2.88A1.58,1.58,0,0,1,101.38,85.13Z"/><path d="M100.69,90.63a1.57,1.57,0,0,1-.58,1.72q-.37-1.36-.66-2.82A1.58,1.58,0,0,1,100.69,90.63Z"/><path d="M100.28,83.63c.06,1,.15,2,.28,2.88a1.5,1.5,0,0,1-.91.2l-.67,0q-.21-1.55-.3-3.18c.43,0,.85,0,1.26.08A1.86,1.86,0,0,1,100.28,83.63Z"/><path d="M100.11,92.35a1.62,1.62,0,0,1-.49.25,84.68,84.68,0,0,0-10.41,4,1.59,1.59,0,0,1-1.36-2.87,90.55,90.55,0,0,1,10.87-4.16,1.51,1.51,0,0,1,.73,0Q99.74,91,100.11,92.35Z"/><path d="M89.24,207.23c-.09,4.91,9.87,5.87,9.67,14a1.61,1.61,0,0,1-.27.85c-4.23,6.28-16.3.53-21.26-2.75l-.89-.65-.2.07c-2.53,1-11.21,4.76-19.3,5.2a50.88,50.88,0,0,1-15.54-1.66L39,221.63c.21-.4.42-.83.61-1.27l.05-.16a51,51,0,0,0,17.21,2.2c9.45-.52,18.54-5.28,19.86-5.45,3.32,2.88,16.85,9.78,20.56,4.27.18-7.51-9.8-7.38-9.67-14,.14-7.22-.1-14.74-3.31-20.51a1.58,1.58,0,0,0,1.61-.08l.11-.07C89.18,192.66,89.37,200.31,89.24,207.23Z"/><path d="M98.68,83.48q.09,1.63.3,3.18c-3.39-.19-7.31.4-11,.68a1.58,1.58,0,1,1-.24-3.15A96.74,96.74,0,0,1,98.68,83.48Z"/><path d="M87.66,207.2c-.13,6.64,9.85,6.51,9.67,14-3.71,5.51-17.24-1.39-20.56-4.27-1.32.17-10.41,4.93-19.86,5.45a51,51,0,0,1-17.21-2.2l-1.51-.46c-2.66,6.15-9.2,10.19-10.64,0-2-.05-15.4-.32-16-.09-2.06.84-8.06,2.14-9.39-.88-2.94-6.63,5.76-7.19,7.35-5.11,2.65-3.49,6.91-11.44,8.85-15.75-8.62-5.85-15.75-15.22-6-23.63,4.06-3.5,13.62-6.23,15.88,3.22,5.22-20.85,32.7-9.78,19.87,8.37,2.61-2.62,15.28-9.9,22.09-8.57,6.56,1.28,10.69,4.17,13.27,8a1.43,1.43,0,0,0,.25.81,1.66,1.66,0,0,0,.58.54C87.56,192.46,87.8,200,87.66,207.2Zm8,13.41-.28-1.69c-1.8-4.57-9.43-4.7-9.29-11.75.24-13-.8-25.29-16.13-28.28-6-1.17-18.18,5.64-20.67,8.14a1.59,1.59,0,0,1-2.42-2c11.52-16.3-12.43-25.43-17-7.08a1.59,1.59,0,0,1-3.08,0c-1.79-7.48-9.18-5.95-13.31-2.39-8.25,7.11-2.94,15.16,5.84,21.12a1.59,1.59,0,0,1,.55,2c-2,4.35-6.27,12.43-9,16.05a1.59,1.59,0,0,1-2.48.06l-.05-.07a4.52,4.52,0,0,0-3.64-.13c-1.13.42-2.06,1.26-1,3.66.62,1.41,4.76,1.11,7.36.06a1.07,1.07,0,0,1,.27-.09l.11,0,.11,0c1.57-.21,14.34.06,16.1.1a1.57,1.57,0,0,1,1.53,1.36c1.33,9.35,6.15,3,7.63-.45a1.57,1.57,0,0,1,1.93-.88,50.87,50.87,0,0,0,18.15,2.59c9.27-.51,17.07-4.86,19.54-5.41l.13,0a1.59,1.59,0,0,1,1.32.36c3.22,2.8,12.73,7.19,16.82,5.64Z"/><path class="cls-2" d="M95.37,218.92l.28,1.69-1,.78c-4.09,1.55-13.6-2.84-16.82-5.64a1.59,1.59,0,0,0-1.32-.36l-.13,0c-2.47.55-10.27,4.9-19.54,5.41a50.87,50.87,0,0,1-18.15-2.59,1.57,1.57,0,0,0-1.93.88c-1.48,3.42-6.3,9.8-7.63.45a1.57,1.57,0,0,0-1.53-1.36c-1.76,0-14.53-.31-16.1-.1l-.11,0-.11,0a1.07,1.07,0,0,0-.27.09c-2.6,1.05-6.74,1.35-7.36-.06-1.06-2.4-.13-3.24,1-3.66a4.52,4.52,0,0,1,3.64.13l.05.07a1.59,1.59,0,0,0,2.48-.06c2.76-3.62,7.07-11.7,9-16.05a1.59,1.59,0,0,0-.55-2c-8.78-6-14.09-14-5.84-21.12,4.13-3.56,11.52-5.09,13.31,2.39a1.59,1.59,0,0,0,3.08,0c4.6-18.35,28.55-9.22,17,7.08a1.59,1.59,0,0,0,2.42,2c2.49-2.5,14.64-9.31,20.67-8.14,15.33,3,16.37,15.32,16.13,28.28C85.94,214.22,93.57,214.35,95.37,218.92Zm-59.29-15a1.59,1.59,0,0,0-.61-2.16,27.9,27.9,0,0,1-2.9-1.9c1-.78,1.86-1.5,2.54-2.09A1.58,1.58,0,1,0,33,195.36c-.63.54-1.76,1.43-3,2.43a33.91,33.91,0,0,1-2.62-2.6,1.58,1.58,0,1,0-2.37,2.1,32.37,32.37,0,0,0,2.55,2.56,20.29,20.29,0,0,0-2.28,2.28,1.58,1.58,0,1,0,2.46,2,20.19,20.19,0,0,1,2.27-2.22,30.93,30.93,0,0,0,3.86,2.61A1.59,1.59,0,0,0,36.08,203.9Z"/><path d="M86.07,186.54l-.11.07a1.58,1.58,0,0,1-1.61.08,15.22,15.22,0,0,0-.83-1.35,1.54,1.54,0,0,1,.71-1.38l.18-.12A19.77,19.77,0,0,1,86.07,186.54Z"/><path d="M84.41,183.84l-.18.12a1.54,1.54,0,0,0-.71,1.38c-2.58-3.83-6.71-6.72-13.27-8-6.81-1.33-19.48,5.95-22.09,8.57,12.83-18.15-14.65-29.22-19.87-8.37-2.26-9.45-11.82-6.72-15.88-3.22-9.77,8.41-2.64,17.78,6,23.63-1.94,4.31-6.2,12.26-8.85,15.75C8,211.62-.75,212.18,2.19,218.81c1.33,3,7.33,1.72,9.39.88.57-.23,14,0,16,.09,1.44,10.15,8,6.11,10.64,0l1.51.46-.05.16L39,221.61h0l.06,0c-3.31,6.18-9.56,8.52-12.16,2l-.57-2.28c-3.19-.06-10.7-.2-13.46-.14l-.89,0-.65.23c-2.59.8-8.78,2.05-10.57-2s0-6.87,2.78-7.91a8.51,8.51,0,0,1,3.83-.44l1.73.44,1.35-2c1.56-2.54,3.3-5.7,4.71-8.47l1.29-2.68-5-4.25c-5.55-5.88-8.47-13.71,0-21,3.16-2.72,10.45-5.41,15-1.84l1.72,1.93c7.09-15.41,27.79-7.86,24.62,6.54l-.48,1.42,1.42-.83c5.19-2.8,12.12-5.48,16.87-4.56C77.28,177.09,81.63,180,84.41,183.84Z"/><path d="M84.35,186.69a1.66,1.66,0,0,1-.58-.54,1.43,1.43,0,0,1-.25-.81A15.22,15.22,0,0,1,84.35,186.69Z"/><path d="M39,221.61l.67-1.25c-.19.44-.4.87-.61,1.27Z"/><path d="M35.47,201.74a1.59,1.59,0,0,1-1.55,2.77,30.93,30.93,0,0,1-3.86-2.61c.79-.68,1.67-1.4,2.51-2.06A27.9,27.9,0,0,0,35.47,201.74Z"/><path d="M35.27,195.52a1.58,1.58,0,0,1-.16,2.23c-.68.59-1.58,1.31-2.54,2.09-.84-.63-1.7-1.32-2.52-2.05,1.23-1,2.36-1.89,3-2.43A1.57,1.57,0,0,1,35.27,195.52Z"/><path d="M30.05,197.79c.82.73,1.68,1.42,2.52,2.05-.84.66-1.72,1.38-2.51,2.06-.83-.63-1.66-1.33-2.45-2.05C28.39,199.16,29.24,198.45,30.05,197.79Z"/><path d="M27.61,199.85c.79.72,1.62,1.42,2.45,2.05a20.19,20.19,0,0,0-2.27,2.22,1.58,1.58,0,1,1-2.46-2A20.29,20.29,0,0,1,27.61,199.85Z"/><path d="M30.05,197.79c-.81.66-1.66,1.37-2.44,2.06a32.37,32.37,0,0,1-2.55-2.56,1.58,1.58,0,1,1,2.37-2.1A33.91,33.91,0,0,0,30.05,197.79Z"/><path d="M141.34,44a13.55,13.55,0,0,1,4.51-14.14,11.89,11.89,0,0,1,1.24-.86c.24-.17.26-.3.07-.57a16.34,16.34,0,0,1-2.35-4.4,18.81,18.81,0,0,1-.7-8.26,11.7,11.7,0,0,1,.79-3.17c.45.12.3.49.35.69.43-1,1-2,1.52-3.06a1.15,1.15,0,0,1,.74-.53c.35-.09.5-.31.43-.75-.5.33-1,.53-1.28,1a1.15,1.15,0,0,1-.37.39c-.1.07-.23.17-.35.06s0-.24.05-.35a3.25,3.25,0,0,0,.6-1.37c1.75-3.94,4.13-7.22,8.61-8.37a11.91,11.91,0,0,1,7.89.79c.67.29,1.3.64,1.94,1a1.2,1.2,0,0,1,.61,1.41,10.67,10.67,0,0,1-4.82,7.24,11.66,11.66,0,0,1-5.16,1.58c-.38,0-.3-.26-.29-.44.06-.57,0-1.13.09-1.7s.46-.41.77-.48A8.32,8.32,0,0,0,162,5.59a9.65,9.65,0,0,0,.57-1.27.6.6,0,0,0-.34-.86c-4.38-2.18-9.53-1.06-12.07,3.71a3.37,3.37,0,0,1-.7,1.11,1.47,1.47,0,0,0-.83,1.75,1.2,1.2,0,0,1-.58,1.36,4.11,4.11,0,0,0-1.41,2.89A17.54,17.54,0,0,0,147,23.4a12.91,12.91,0,0,0,2.21,3.86.75.75,0,0,0,1,.24,13.41,13.41,0,0,1,12.49,2.08l.08.1c.16.27.38.5.51.78.2.44.59.87-.1,1.28-.24.15-.1.4.08.56a8.91,8.91,0,0,1,2.18,3.27,2.53,2.53,0,0,0,.77,1.06,1.89,1.89,0,0,1,.55,1.24,10.41,10.41,0,0,0,.59,2.15,12.81,12.81,0,0,1,.46,2.79,11.87,11.87,0,0,1-2.33,5.58A13.12,13.12,0,0,1,155.77,54a13,13,0,0,1-10.65-3.73c.56-.56.6-.72.09-1.32a16.42,16.42,0,0,1-2.82-4.61c-.14-.35-.35-.58-.75-.31A.23.23,0,0,1,141.34,44Z"/><path class="cls-3" d="M167.81,42.81a3.2,3.2,0,0,1-.4-1.63A2.92,2.92,0,0,0,167,39.7a5.2,5.2,0,0,1-.39-1.71c-.13-.54-.17-1.1-.77-1.44-.41-.24-.51-.8-.71-1.24a7.34,7.34,0,0,0-2.07-2.91c-.4-.32-.35-.69.15-.92.29-.14.27-.24.16-.48a5.63,5.63,0,0,1-.6-1.32,13.63,13.63,0,0,1,4.77,7.48,13.23,13.23,0,0,1,.39,5.35A1.88,1.88,0,0,1,167.81,42.81Z"/><path class="cls-3" d="M148.06,11.39a2.72,2.72,0,0,0,.38-2.08c0-.53.42-.9.95-1.09a.41.41,0,0,1,.11.3c0,.82,0,.79.79,1a16,16,0,0,0,4.31.37,1.49,1.49,0,0,1,1,.16,8.12,8.12,0,0,1-.1,2c0,.12.05.21.15.27a4.8,4.8,0,0,1-1.77.09c0-.14.06-.25.11-.37.16-.44,0-.71-.46-.74a15.72,15.72,0,0,1-3-.5.62.62,0,0,0-.67.15c-.2.23,0,.4.13.58a.26.26,0,0,1,0,.24A13.51,13.51,0,0,0,148.06,11.39Z"/><path class="cls-3" d="M141.34,44c.76-.51.95-.44,1.29.44a14.23,14.23,0,0,0,2.47,4.09,4.81,4.81,0,0,1,.44.57c.43.64.34.88-.42,1.14A14.22,14.22,0,0,1,141.34,44Z"/><path d="M150.05,11.8a.78.78,0,0,0-.16-.2c-.21-.15-.4-.3-.3-.59a.6.6,0,0,1,.7-.39c.49.07,1,.22,1.47.31a7.42,7.42,0,0,0,1.62.21.76.76,0,0,1,.84.39c.18.41,0,.67-.33.91A8.29,8.29,0,0,1,150.05,11.8Z"/><path class="cls-4" d="M146.59,8.72c.26.39-.05.66-.21,1a6.52,6.52,0,0,1-.42.65l.16.15c.13-.18.34-.34.39-.54.18-.66.93-.69,1.25-1.19.11-.18.26-.06.35.1a.7.7,0,0,1-.49,1,1,1,0,0,0-.8.59l-1.63,3.27c-.07-.42,0-.82-.29-1.11A20.26,20.26,0,0,1,146.59,8.72Z"/><path class="cls-5" d="M151.84,29.47a11.26,11.26,0,1,1,5.06,21.94,10.78,10.78,0,0,1-11.35-4.2,11.15,11.15,0,0,1,3.26-16.53.66.66,0,0,1,.88,0,11.19,11.19,0,0,0,2.91,1.66c.75.29,1.44.12,1.66-.43a1.21,1.21,0,0,0-.82-1.67A8,8,0,0,1,151.84,29.47Z"/><path class="cls-6" d="M155.61,10.05a17.12,17.12,0,0,1-5.75-.43c-.82-.22-.82-.22-.55-1,0-.12.05-.25.08-.38a26.41,26.41,0,0,1,1.49-2.49c3-3.85,7.66-4.43,11.73-2.27.35.19.31.39.21.69A8.39,8.39,0,0,1,156,9.94Z"/><path d="M153,35.93a3.9,3.9,0,0,1-3-1.47,1.16,1.16,0,0,1,1.7-1.59,2.36,2.36,0,0,0,3,.43,1.8,1.8,0,0,0,1-1.48,4.55,4.55,0,0,1,0-.53,1.16,1.16,0,0,1,1.13-1.08A1.26,1.26,0,0,1,158,31.42a3.93,3.93,0,0,1-1.51,3.3A5.09,5.09,0,0,1,153,35.93Z"/><path class="cls-7" d="M149.1,36.56a1.73,1.73,0,0,1-1.64,1.59,1.36,1.36,0,0,1-1.34-1.35,1.91,1.91,0,0,1,1.66-1.61A1.34,1.34,0,0,1,149.1,36.56Z"/></g></g></svg>