<svg xmlns="http://www.w3.org/2000/svg" viewBox="0 0 264.67 210.27"><defs><style>.cls-1{fill:#fff;}.cls-2{fill:#e5e5e5;}.cls-3{fill:#040404;}.cls-4{fill:#050505;}.cls-5{fill:#fe6262;}.cls-6{fill:#ade77b;}.cls-7{fill:#fefdfd;}</style></defs><g id="레이어_2" data-name="레이어 2"><g id="레이어_1-2" data-name="레이어 1"><path class="cls-1" d="M150.14,184.59c4.22-.23,10.58,3.79,9.64,9.48-.51,3.12-3.35,5.42-8.63,5.75a10.66,10.66,0,0,0,0-6.95c-.94-3.18-4.62-7.84-9.35-8.1l-.93.07L139.1,181c-4.22-10.93-3.45-22-.68-27.9a51.22,51.22,0,0,1,4.2-7c-2.32,13.28.12,35.82,6.95,38.38A1.39,1.39,0,0,0,150.14,184.59Z"/><path class="cls-1" d="M165.43,33.49a103.23,103.23,0,0,0,.65,10.37c-6.68-3.39-14.47-5.62-20-7.2,3.35-4.5,10.73-12.28,15.89-13.38h2.09l.5,1C165,25.78,165.26,28.87,165.43,33.49Z"/><path class="cls-1" d="M185,79.51a39.34,39.34,0,0,1-1,10.9c-1.33,5.22-4.09,10.42-9.26,17.11-2.78,3.59-15.07,16-18.88,19.13a74.75,74.75,0,0,0-7.91,8.07l-.39.47h0l-2.13,2.56-.37.45a78.63,78.63,0,0,0-9.19,13.7c-3.59,7.59-4,22.07,2.87,35a1.4,1.4,0,0,0,1.53.71c3.57-.8,7.26,2.92,8.17,6a7.19,7.19,0,0,1-.8,6.53c-2.44,3.33-8.09,4.51-13.43,3.82-10.76-1.38-19-13.46-24.47-26.26l-2.44-6.35a1.39,1.39,0,0,0-.38-1l-.14-.31a119,119,0,0,1-3.89-14,1.39,1.39,0,0,0-2.73.57,121.85,121.85,0,0,0,3.89,14l.39,1-.25,1.36c-1.32,4.15-6.11,8.39-6.38,12.37a1.43,1.43,0,0,0,.69,1.3c3.19,1.86,6.47,4.71,6.28,7.74-.35,5.61-12.73,6.65-20.58,5.87,11-10.59,14-25.22,9.33-37.25a22.88,22.88,0,0,0-22.84-14c-11.58,1.08-15.62,7.39-12.49,14.34a1.38,1.38,0,0,0,.2.33c4.7,5.57,11.22.24,15.23,1.93,5.08,2.14,5.77,14.5.29,20.48-6.51,7.11-15.05,8.4-23.83,7.3C38.36,192,23,178.31,23.22,161.55a1.39,1.39,0,0,0-2.78,0c-.28,18.33,16.33,33.06,29.34,34.68C59,197.35,68.64,196.05,76,188c5.88-6.41,6.67-21.59-1.25-24.93-5.33-2.24-9.48,1.78-12.81,0L60.69,162l-.5-1.46c-.88-3.95,1.51-7.89,10.79-8.75a20.13,20.13,0,0,1,20,12.27c4.45,11.52,1.27,25.87-10.41,35.84a1.37,1.37,0,0,0-.38.15,37.21,37.21,0,0,1-5.06,2.78c-18,9.24-40.8,3.77-54.14-8.8C6,180,2.32,163.3,2.83,143.76a61.55,61.55,0,0,1,.84-8.07l.09-.5h0l.75-3.95c1.63-7.49,4.25-15.21,7.14-19.81l.06-.1c6-11.68,22.83-25.38,45.66-28.67,14-2,17.75.51,27.6-5.35,8.22-4.88,10.36-19.82,17.24-30.91a.56.56,0,0,0,.09-.17c5-11.37,18.07-30.41,22-31.19,5.32-1.06,7.42,12.4,11,18.81L136.91,36l.88.7a27.22,27.22,0,0,0,5.65,2.2c6.52,2,16.33,4.29,23.79,8.67a26.19,26.19,0,0,1,6.3,4.93A47.3,47.3,0,0,1,184,72a9.15,9.15,0,0,0-6.73.34l-2,1.32-.43.29-1.25,1.15a1.39,1.39,0,1,0,2.37,1.46.8.8,0,0,1,.39-.35,1.23,1.23,0,0,0,.44-.3c2-2,6.14-2.07,7.16-.58a1.39,1.39,0,0,0,.87.57A30,30,0,0,1,185,79.51Zm-19,8c3.4,1.79,8.6-1.09,8.32-4.57a1.39,1.39,0,1,0-2.78.22c.15,1.79-4.44,3.76-5.39.13a1.39,1.39,0,0,0-2.68,0c-1.19,4-7,2.51-6.82-.43a1.39,1.39,0,1,0-2.78-.14c-.31,5.9,7.41,7.39,10.87,3.75ZM152.29,76.23a1.4,1.4,0,0,0,.21-2c-6.05-7.54-17.68-6.51-24.57-1.83a1.4,1.4,0,1,0,1.57,2.31c6.24-4.25,16.05-4.69,20.84,1.26A1.39,1.39,0,0,0,152.29,76.23Zm-14.14,15A1.39,1.39,0,0,0,136.49,89c-2.48,1.85-7.11,4-9.87,7a1.39,1.39,0,1,0,2,1.88C131.29,95,134.78,93.76,138.15,91.24Zm-2.85-4.62a1.39,1.39,0,0,0-.53-2.73c-3.16.61-9.28,2.46-12.18,4.64a1.39,1.39,0,0,0,1.67,2.23C126.63,89,132.22,87.22,135.3,86.62Z"/><path d="M261.59,189c2.45.91,4.05,3.33,2.44,6.95s-7,2.47-9.28,1.76l-.57-.2-.78,0c-2.43-.05-9.46.07-12.27.13l-.06,2c-.52,7.72-7.59,3.9-10.66-1.76h.05l-.6-1.09-.05-.16,1.32-.4c2.34,5.41,8.09,9,9.35,0,1.72,0,13.53-.28,14-.07,1.81.73,7.08,1.87,8.25-.78,2.58-5.82-5.06-6.31-6.46-4.49a93.15,93.15,0,0,1-7.77-13.83c7.57-5.14,13.83-13.37,5.25-20.76-3.57-3.08-12-5.47-13.95,2.82-4.59-18.3-28.72-8.58-17.45,7.36-2.3-2.3-13.42-8.69-19.41-7.53-5.78,1.13-9.41,3.68-11.67,7.06a1.38,1.38,0,0,0-.6-.88l-.35-.22c2.44-3.47,6.3-6.14,12.36-7.32,4.17-.81,10.26,1.54,14.82,4l1.25.73-.43-1.25c-2.78-12.65,15.27-18.55,21.5-5l2-2.68c3.51-3.49,10.12-.52,12.89,1.87,7.44,6.4,4.87,13.28,0,18.44l-4.43,3.73,1.14,2.36c1.23,2.43,2.76,5.21,4.13,7.44L256.7,189l1.53-.38A7.48,7.48,0,0,1,261.59,189Z"/><path d="M256.3,190.88c1.4-1.82,9-1.33,6.46,4.49-1.17,2.65-6.44,1.51-8.25.78-.5-.21-12.31,0-14,.07-1.26,8.92-7,5.37-9.35,0l-1.32.4a44.35,44.35,0,0,1-15.12,1.94c-8.3-.45-16.28-4.63-17.44-4.79-2.92,2.53-14.8,8.59-18.06,3.76-.16-6.6,8.6-6.49,8.49-12.32-.11-6.15.08-12.55,2.67-17.55a1.45,1.45,0,0,0,.75-.57,1.41,1.41,0,0,0,.2-1.05c2.26-3.38,5.89-5.93,11.67-7.06,6-1.16,17.11,5.23,19.41,7.53-11.27-15.94,12.86-25.66,17.45-7.36,2-8.29,10.38-5.9,13.95-2.82,8.58,7.39,2.32,15.62-5.25,20.76A93.15,93.15,0,0,0,256.3,190.88Zm5.19,3.93c.94-2.11.12-2.85-.87-3.22a4,4,0,0,0-3.2.12l-.05.06a1.38,1.38,0,0,1-1.1.5,1.36,1.36,0,0,1-1.07-.55,94,94,0,0,1-7.94-14.11,1.38,1.38,0,0,1,.51-1.73c7.69-5.23,12.35-12.3,5.1-18.53-3.63-3.13-10.35-5.52-11.53,2.05-.57,8.66-2.73,4.48-2.72,1.28a7.81,7.81,0,0,0-.52-2.51c-4.8-14.39-24.42-6.42-14.58,7.5a1.39,1.39,0,0,1-2.12,1.79c-2.19-2.2-12.87-8.18-18.16-7.15-13.47,2.62-14.38,13.45-14.17,24.84.12,6.19-6.58,6.3-8.16,10.31l-.24,1.49.89.69c3.59,1.36,11.95-2.5,14.78-5a1.43,1.43,0,0,1,1.16-.32l.1,0c2.17.47,9,4.3,17.17,4.74a41.78,41.78,0,0,0,15.32-1.85A1.51,1.51,0,0,1,232,196c2,4.43,8,9.11,7.11.51a1.64,1.64,0,0,1,1.33-1.72c1.55,0,12.77-.27,14.15-.08h.1l.09,0a1.13,1.13,0,0,1,.24.08q.45.18,1,.33C258.21,195.82,261,195.89,261.49,194.81Z"/><path class="cls-2" d="M260.62,191.59c1,.37,1.81,1.11.87,3.22-.47,1.08-3.28,1-5.5.38l.28-2.92a1.38,1.38,0,0,0,1.1-.5l.05-.06A4,4,0,0,1,260.62,191.59Z"/><path class="cls-2" d="M256.27,192.27l-.28,2.92q-.51-.15-1-.33a1.13,1.13,0,0,0-.24-.08l-.09,0h-.1c-1.38-.19-12.6.05-14.15.08a1.64,1.64,0,0,0-1.33,1.72c.85,8.6-5.15,3.92-7.11-.51a1.51,1.51,0,0,0-1.92-.76,41.78,41.78,0,0,1-15.32,1.85c-8.14-.44-15-4.27-17.17-4.74l-.1,0a1.43,1.43,0,0,0-1.16.32c-2.83,2.46-11.19,6.32-14.78,5l-.89-.69.24-1.49c1.58-4,8.28-4.12,8.16-10.31-.21-11.39.7-22.22,14.17-24.84,5.29-1,16,4.95,18.16,7.15a1.39,1.39,0,0,0,2.12-1.79c-9.84-13.92,9.78-21.89,14.58-7.5a7.81,7.81,0,0,1,.52,2.51c0,3.2,2.15,7.38,2.72-1.28,1.18-7.57,7.9-5.18,11.53-2.05,7.25,6.23,2.59,13.3-5.1,18.53a1.38,1.38,0,0,0-.51,1.73,94,94,0,0,0,7.94,14.11A1.36,1.36,0,0,0,256.27,192.27Zm-11.42-9.93c0-1.84-1.21-3.34-2.71-3.34s-2.7,1.5-2.7,3.34,1.21,3.35,2.7,3.35S244.85,184.19,244.85,182.34Z"/><path d="M242.14,179c1.5,0,2.71,1.5,2.71,3.34s-1.21,3.35-2.71,3.35-2.7-1.5-2.7-3.35S240.65,179,242.14,179Z"/><path d="M229.86,196.74l.58,1.09h0A10.26,10.26,0,0,1,229.86,196.74Z"/><path d="M230.41,197.84l-2.14.62a45,45,0,0,1-13.65,1.45c-7.1-.39-14.73-3.66-17-4.57l-.18-.06-.78.57c-4.36,2.88-15,7.93-18.67,2.41a1.36,1.36,0,0,1-.24-.74c-.18-7.17,8.57-8,8.49-12.32-.11-6,0-12.58,2.65-17.9l.23.15a1.43,1.43,0,0,0,1.18.17c-2.59,5-2.78,11.4-2.67,17.55.11,5.83-8.65,5.72-8.49,12.32,3.26,4.83,15.14-1.23,18.06-3.76,1.16.16,9.14,4.34,17.44,4.79a44.35,44.35,0,0,0,15.12-1.94l.05.16A10.26,10.26,0,0,0,230.41,197.84Z"/><path d="M198.11,87.94a1.39,1.39,0,0,1-.76,2.68c-3.47-1-6.45-2.12-9.72-2.82l-.25-.08c.13-.87.23-1.75.31-2.65a1.3,1.3,0,0,1,.52,0C191.58,85.8,195,87,198.11,87.94Z"/><path d="M196.15,93.78a1.39,1.39,0,0,1-1.49,2.35,36.59,36.59,0,0,0-8.29-3.82c.27-.9.49-1.8.67-2.7A38.69,38.69,0,0,1,196.15,93.78Z"/><path d="M191.3,166a1.41,1.41,0,0,1-.2,1.05,1.45,1.45,0,0,1-.75.57A14.6,14.6,0,0,1,191.3,166Z"/><path d="M190.7,165.12a1.38,1.38,0,0,1,.6.88,14.6,14.6,0,0,0-1,1.62,1.43,1.43,0,0,1-1.18-.17l-.23-.15a17,17,0,0,1,1.41-2.4Z"/><path d="M190.35,164.9a17,17,0,0,0-1.41,2.4c-9.8-6.27-13.15-9.5-16.06-14-1.93-3.35-3-8.88-3-13.41a1.39,1.39,0,0,1,1.72-1,1.41,1.41,0,0,1,1,1.73c-.11,3.41.13,8.55,3.33,13C178.68,157,180.3,158.54,190.35,164.9Z"/><path d="M187.82,79.44a51.87,51.87,0,0,1-.13,5.63,1.39,1.39,0,0,0-.31,2.65c-.09.64-.21,1.27-.34,1.89l-.68-.15a1.39,1.39,0,0,0-1.61,1.13l-.74-.18a39.34,39.34,0,0,0,1-10.9,30,30,0,0,0-.31-3.63,1.37,1.37,0,0,0,1.07-.21,1.42,1.42,0,0,0,.54-1.56l.89-.16A35.43,35.43,0,0,1,187.82,79.44Z"/><path d="M187.69,85.07c-.08.9-.18,1.78-.31,2.65a1.39,1.39,0,0,1,.31-2.65Z"/><path d="M187.23,74l-.89.16a1.46,1.46,0,0,0-.18-.38A4.92,4.92,0,0,0,184,72a47.3,47.3,0,0,0-10.43-19.44,26.19,26.19,0,0,0-6.3-4.93l.14-.24a1.4,1.4,0,0,0,1.32.08,1.38,1.38,0,0,0,.72-1.73,27.94,27.94,0,0,1,6.18,5A49.45,49.45,0,0,1,187.23,74Z"/><path d="M186.36,89.46l.68.15c-.18.9-.4,1.8-.67,2.7-.17,0-.34-.08-.49-.11a1.39,1.39,0,1,1,.48-2.74Z"/><path d="M186.34,74.11a1.42,1.42,0,0,1-.54,1.56,1.37,1.37,0,0,1-1.07.21A35.82,35.82,0,0,0,184,72a4.92,4.92,0,0,1,2.2,1.75A1.46,1.46,0,0,1,186.34,74.11Z"/><path d="M185.88,92.2c.15,0,.32.06.49.11-1.53,5.21-4.42,10.44-9.42,16.91-2.93,3.79-15.37,16.31-19.31,19.57a56.68,56.68,0,0,0-4.85,4.71l-1.52,1.69h-3.7l.39-.47a74.75,74.75,0,0,1,7.91-8.07c3.81-3.16,16.1-15.54,18.88-19.13,5.17-6.69,7.93-11.89,9.26-17.11l.74.18A1.38,1.38,0,0,0,185.88,92.2Z"/><path d="M184.73,75.88a1.39,1.39,0,0,1-.87-.57c-1-1.49-5.13-1.43-7.16.58a1.23,1.23,0,0,1-.44.3.8.8,0,0,0-.39.35,1.39,1.39,0,1,1-2.37-1.46l1.25-1.15.43-.29,2-1.32A9.15,9.15,0,0,1,184,72,35.82,35.82,0,0,1,184.73,75.88Z"/><path d="M174.34,83c.28,3.48-4.92,6.36-8.32,4.57l-1.26-1.09a3,3,0,0,0,.3-.32l-.34.29h0l0,0c-3.46,3.64-11.18,2.15-10.87-3.75a1.39,1.39,0,1,1,2.78.14c-.16,2.94,5.63,4.42,6.82.43a1.39,1.39,0,0,1,2.68,0c1,3.63,5.54,1.66,5.39-.13a1.39,1.39,0,1,1,2.78-.22Z"/><path d="M169.41,45.72a1.38,1.38,0,0,1-.72,1.73,1.4,1.4,0,0,1-1.32-.08,1.33,1.33,0,0,1-.52-.6,11.32,11.32,0,0,1-.77-2.91Q167.8,44.73,169.41,45.72Z"/><path d="M169.37,45.6a.28.28,0,0,1,0,.12q-1.6-1-3.33-1.86a103.23,103.23,0,0,1-.65-10.37c-.17-4.62-.43-7.71-.88-9.25l-.5-1H162c-5.16,1.1-12.54,8.88-15.89,13.38-1-.29-2-.56-2.84-.82,2.93-4.21,14-17.27,21.62-15.25a1.82,1.82,0,0,1,.3.11l.42.23a1.43,1.43,0,0,1,.24.16c2.08,1.72,2.22,7.6,2.4,12.29C168.42,38.8,168.53,43.78,169.37,45.6Z"/><path d="M167.37,47.37l-.14.24c-7.46-4.38-17.27-6.68-23.79-8.67l.32-1a1.39,1.39,0,0,0,1.75-.45c.17-.25.36-.5.56-.78,5.54,1.58,13.33,3.81,20,7.2a11.32,11.32,0,0,0,.77,2.91A1.33,1.33,0,0,0,167.37,47.37Z"/><path d="M165.06,86.13a3,3,0,0,1-.3.32l0,0Z"/><path d="M152,181.94c5.07.83,11.68,5.36,10.49,12.58-.9,5.47-6.17,8.18-13,8.13a.55.55,0,0,1-.18,0,8.43,8.43,0,0,0,1.79-2.81c5.28-.33,8.12-2.63,8.63-5.75.94-5.69-5.42-9.71-9.64-9.48a1.39,1.39,0,0,1-.57-.09c-6.83-2.56-9.27-25.1-6.95-38.38,1.87-2.69,4-5.52,6.25-8.14a1.38,1.38,0,0,1-.7,1.28c-2.38,1.34-4,10.74-3.49,21.6.45,9.52,2.37,17.65,4.8,20.27l1,.71Z"/><path d="M152.5,74.27A1.39,1.39,0,1,1,150.34,76c-4.79-6-14.6-5.51-20.84-1.26a1.4,1.4,0,1,1-1.57-2.31C134.82,67.76,146.45,66.73,152.5,74.27Z"/><path d="M151.3,135.19l-1.25,1.39c-.39.46-.79.92-1.18,1.4a1.39,1.39,0,0,0-2.07-1.14,4.51,4.51,0,0,0-1.19,1l-.15-.12,2.13-2.56h3.71Z"/><path d="M151.14,192.87a10.66,10.66,0,0,1,0,6.95c-.51,0-1,.05-1.59.05a1.4,1.4,0,0,0-1.16.61l-.73-.29a7.19,7.19,0,0,0,.8-6.53c-.91-3.08-4.6-6.8-8.17-6a1.4,1.4,0,0,1-1.53-.71c-6.89-13-6.46-27.46-2.87-35a78.63,78.63,0,0,1,9.19-13.7l.37-.45.15.12c-1.36,1.64-2.36,4.59-3,8.25a51.22,51.22,0,0,0-4.2,7c-2.77,5.86-3.54,17,.68,27.9l1.76,3.85.93-.07C146.52,185,150.2,189.69,151.14,192.87Z"/><path d="M149.56,199.87c.55,0,1.08,0,1.59-.05a8.43,8.43,0,0,1-1.79,2.81,1.38,1.38,0,0,1-1-2.15A1.4,1.4,0,0,1,149.56,199.87Z"/><path d="M148.69,137.37a1.38,1.38,0,0,1,.18.61c-2.2,2.62-4.38,5.45-6.25,8.14.63-3.66,1.63-6.61,3-8.25a4.51,4.51,0,0,1,1.19-1A1.38,1.38,0,0,1,148.69,137.37Z"/><path d="M147.67,200.19l.73.29a1.38,1.38,0,0,0,1,2.15c-3.52,3.73-10.3,4.81-15.47,4.14-12.2-1.57-21-14.69-26.75-28.1L106,175.76l-2,3.59a37.69,37.69,0,0,0-3,5l-.15.55,1.63,1.08c2.65,2,5.38,5,5.15,8.65-.56,8.86-16.31,9.22-24.15,8.4l-2.22-.33,0-.33a1.39,1.39,0,0,0,1.08-.31c.66-.56,1.29-1.14,1.9-1.73,7.85.78,20.23-.26,20.58-5.87.19-3-3.09-5.88-6.28-7.74a1.43,1.43,0,0,1-.69-1.3c.27-4,5.06-8.22,6.38-12.37l.25-1.36-.39-1a121.85,121.85,0,0,1-3.89-14,1.39,1.39,0,0,1,2.73-.57,119,119,0,0,0,3.89,14l.14.31a1.39,1.39,0,0,1,.38,1l2.44,6.35c5.48,12.8,13.71,24.88,24.47,26.26C139.58,204.7,145.23,203.52,147.67,200.19Z"/><path d="M146.07,36.66c-.2.28-.39.53-.56.78a1.39,1.39,0,0,1-1.75.45,1.18,1.18,0,0,1-.19-.11,1.39,1.39,0,0,1-.34-1.94C144.09,36.1,145,36.37,146.07,36.66Z"/><path d="M143.76,37.89l-.32,1a27.22,27.22,0,0,1-5.65-2.2l-.88-.7-1.61-2.19c-3.62-6.41-5.72-19.87-11-18.81-3.9.78-16.94,19.82-22,31.19a.56.56,0,0,1-.09.17c-6.88,11.09-9,26-17.24,30.91-9.85,5.86-13.61,3.32-27.6,5.35-22.83,3.29-39.7,17-45.66,28.67l-.06.1C8.75,116,6.13,123.75,4.5,131.24l-.75,3.95H.93l.48-2.75a84.14,84.14,0,0,1,6.06-19.18L9.23,110l0-.08,2.86-4.67C20.16,94.11,36.3,82.89,57,79.9c15.19-2.19,17.34.52,26.58-5,6.68-4,7.93-14,13.58-25.13l2.66-4.74,2.14-4.41c5.85-11.25,16.77-27.32,21.79-28.33,9.26-1.85,11.22,18,15.17,21.78l.06.06c.44.47,2,1,4.29,1.69a1.39,1.39,0,0,0,.34,1.94A1.18,1.18,0,0,0,143.76,37.89Z"/><path d="M138.43,89.29a1.39,1.39,0,0,1-.28,1.95c-3.37,2.52-6.86,3.79-9.48,6.66a1.39,1.39,0,1,1-2-1.88c2.76-3,7.39-5.16,9.87-7A1.39,1.39,0,0,1,138.43,89.29Z"/><path d="M136.4,85a1.39,1.39,0,0,1-1.1,1.63c-3.08.6-8.67,2.36-11,4.14a1.39,1.39,0,0,1-1.67-2.23c2.9-2.18,9-4,12.18-4.64A1.4,1.4,0,0,1,136.4,85Z"/><path d="M93.56,163.09c4.65,12,1.67,26.66-9.33,37.25a30.49,30.49,0,0,1-3-.44,1.3,1.3,0,0,0-.62,0C92.24,190,95.42,175.61,91,164.09a20.13,20.13,0,0,0-20-12.27c-9.28.86-11.67,4.8-10.79,8.75l.5,1.46,1.25,1.05c3.33,1.78,7.48-2.24,12.81,0C82.67,166.42,81.88,181.6,76,188c-7.36,8-17,9.34-26.22,8.18-13-1.62-29.62-16.35-29.34-34.68a1.39,1.39,0,0,1,2.78,0C23,178.31,38.36,192,50.12,193.43c8.78,1.1,17.32-.19,23.83-7.3,5.48-6,4.79-18.34-.29-20.48-4-1.69-10.53,3.64-15.23-1.93a1.38,1.38,0,0,1-.2-.33c-3.13-6.95.91-13.26,12.49-14.34A22.88,22.88,0,0,1,93.56,163.09Z"/><path d="M84.23,200.34c-.61.59-1.24,1.17-1.9,1.73a1.39,1.39,0,1,1-1.8-2.12l0,0a1.3,1.3,0,0,1,.62,0A30.49,30.49,0,0,0,84.23,200.34Z"/><path d="M81.25,202.38l0,.33-.85.54c-.59.33-1.61.87-4,2.09-19.19,9.86-43.26,4-57.32-9.26C3.33,181.27-.47,163.67.05,143.69a61,61,0,0,1,.69-7.25L1,135.19H3.76l-.09.5a61.55,61.55,0,0,0-.84,8.07C2.32,163.3,6,180,21,194.06c13.34,12.57,36.17,18,54.14,8.8a37.21,37.21,0,0,0,5.06-2.78,1.37,1.37,0,0,1,.38-.15l0,0a1.38,1.38,0,0,0-.16,2A1.4,1.4,0,0,0,81.25,202.38Z"/><path d="M155.72,38.31A11.83,11.83,0,0,0,151.8,26a10.23,10.23,0,0,0-1.07-.75c-.21-.15-.23-.26-.06-.5a13.67,13.67,0,0,0,2-3.83,16.37,16.37,0,0,0,.62-7.19,10.64,10.64,0,0,0-.69-2.76c-.39.1-.27.43-.31.6-.37-.85-.83-1.77-1.32-2.67a1,1,0,0,0-.63-.45c-.31-.08-.44-.27-.38-.66.44.29.88.46,1.12.91a.82.82,0,0,0,.31.33c.09.07.2.16.31.06s0-.2,0-.3a2.93,2.93,0,0,1-.52-1.2C149.65,4.16,147.59,1.3,143.7.3a10.34,10.34,0,0,0-6.84.7c-.58.25-1.13.55-1.68.85a1,1,0,0,0-.53,1.22,9.3,9.3,0,0,0,4.18,6.31,10.07,10.07,0,0,0,4.47,1.37c.33,0,.27-.22.25-.38-.05-.49,0-1-.07-1.48s-.4-.36-.67-.42a7.25,7.25,0,0,1-5-3.6,8.93,8.93,0,0,1-.48-1.1A.53.53,0,0,1,137.6,3a7.56,7.56,0,0,1,10.46,3.24,3.13,3.13,0,0,0,.61,1,1.29,1.29,0,0,1,.72,1.53,1,1,0,0,0,.5,1.17,3.6,3.6,0,0,1,1.22,2.52,15.4,15.4,0,0,1-.3,7.94,11.28,11.28,0,0,1-1.92,3.37c-.27.33-.49.32-.86.21a11.54,11.54,0,0,0-10.82,1.81.31.31,0,0,0-.07.09,6,6,0,0,0-.44.67c-.18.38-.51.76.08,1.12.21.12.09.35-.07.48A7.9,7.9,0,0,0,134.82,31a2.09,2.09,0,0,1-.66.92,1.66,1.66,0,0,0-.48,1.08,8.79,8.79,0,0,1-.51,1.87,11.53,11.53,0,0,0-.4,2.43,10.38,10.38,0,0,0,2,4.86A11.36,11.36,0,0,0,143.2,47a11.23,11.23,0,0,0,9.24-3.25c-.49-.49-.52-.62-.08-1.15a14.09,14.09,0,0,0,2.44-4c.12-.31.3-.51.65-.27A.21.21,0,0,0,155.72,38.31Z"/><path class="cls-3" d="M132.77,37.27a2.81,2.81,0,0,0,.35-1.41,2.61,2.61,0,0,1,.35-1.3,4.64,4.64,0,0,0,.35-1.49c.1-.47.14-1,.66-1.25.36-.21.44-.7.62-1.08a6.3,6.3,0,0,1,1.79-2.53c.35-.28.3-.6-.13-.8-.26-.12-.23-.21-.14-.42a4.88,4.88,0,0,0,.52-1.14,11.87,11.87,0,0,0-4.14,6.5,11.64,11.64,0,0,0-.33,4.66A.82.82,0,0,0,132.77,37.27Z"/><path class="cls-3" d="M149.89,9.91a2.33,2.33,0,0,1-.33-1.8,1,1,0,0,0-.82-.95.35.35,0,0,0-.1.26c0,.71,0,.69-.69.87a14.12,14.12,0,0,1-3.73.32,1.26,1.26,0,0,0-.87.14,7,7,0,0,0,.08,1.77c0,.1,0,.18-.13.23a4,4,0,0,0,1.53.08c0-.12-.05-.22-.09-.32-.14-.39,0-.62.4-.64a13.26,13.26,0,0,0,2.58-.44.52.52,0,0,1,.58.13c.18.2,0,.34-.11.5a.22.22,0,0,0,0,.22A12.53,12.53,0,0,1,149.89,9.91Z"/><path class="cls-3" d="M155.72,38.31c-.67-.45-.83-.38-1.12.38a12.45,12.45,0,0,1-2.15,3.56c-.13.16-.26.33-.38.5-.37.56-.29.76.37,1A12.5,12.5,0,0,0,155.72,38.31Z"/><path d="M148.17,10.28a.83.83,0,0,1,.13-.18c.18-.13.35-.27.26-.51a.52.52,0,0,0-.6-.35c-.43.07-.85.2-1.28.27a6,6,0,0,1-1.41.19.66.66,0,0,0-.72.34c-.16.35,0,.58.28.79A7.21,7.21,0,0,0,148.17,10.28Z"/><path class="cls-4" d="M151.16,7.59c-.22.34.05.58.18.84a4.92,4.92,0,0,0,.37.56l-.14.14a1.69,1.69,0,0,1-.34-.48c-.15-.57-.8-.6-1.08-1-.1-.16-.22,0-.3.09a.59.59,0,0,0,.42.86.82.82,0,0,1,.69.52l1.42,2.85c.06-.37,0-.71.25-1A17.47,17.47,0,0,0,151.16,7.59Z"/><path class="cls-5" d="M146.62,25.66a9.8,9.8,0,1,0-4.39,19.1,9.29,9.29,0,0,0,9.83-3.66,9.72,9.72,0,0,0-2.82-14.39.57.57,0,0,0-.76,0A10,10,0,0,1,146,28.19c-.64.26-1.25.1-1.43-.37a1.05,1.05,0,0,1,.71-1.46A7,7,0,0,0,146.62,25.66Z"/><path class="cls-6" d="M143.35,8.75a14.66,14.66,0,0,0,5-.38c.71-.19.71-.19.47-.88,0-.11,0-.22-.06-.33-.44-.72-.78-1.49-1.29-2.17-2.56-3.35-6.64-3.86-10.17-2-.3.17-.27.34-.18.61a7.29,7.29,0,0,0,5.93,5C143.14,8.68,143.24,8.72,143.35,8.75Z"/><path d="M145.57,31.28a3.34,3.34,0,0,0,2.6-1.28,1,1,0,0,0-1.47-1.38,2,2,0,0,1-2.57.37,1.53,1.53,0,0,1-.83-1.29c0-.15,0-.3,0-.46a1,1,0,0,0-1-.93,1.07,1.07,0,0,0-1,1.05,3.39,3.39,0,0,0,1.31,2.87A4.37,4.37,0,0,0,145.57,31.28Z"/><path class="cls-7" d="M149,31.83a1.49,1.49,0,0,0,1.42,1.38A1.18,1.18,0,0,0,151.57,32a1.64,1.64,0,0,0-1.43-1.4A1.16,1.16,0,0,0,149,31.83Z"/></g></g></svg>